<?xml version="1.0" encoding="utf-8"?>
<svg viewBox="530.751 55.59 278.256 136.411" xmlns="http://www.w3.org/2000/svg">
  <g transform="matrix(1, 0, 0, 1, 516.780953, -30.178973)">
    <g>
      <path d="M44.44 117.34C39.38 120.54 34.59 123.6 33.79 124.13C32.86 124.66 29.93 123.2 27.27 121.07C24.48 118.81 21.69 117.08 21.15 117.08C18.89 117.08 19.96 120.94 23.28 124.79C23.5 125.06 24.61 126.39 26.61 128.79L20.36 134.37L13.97 139.83C17.16 139.43 18.94 139.21 19.29 139.16C22.22 138.76 26.74 138.1 29.4 137.57C33.93 136.77 34.46 137.17 40.71 144.49C44.3 148.61 54.68 158.99 63.86 167.37C92.86 193.98 118.14 211.14 138.76 218.32C148.88 221.92 151.14 222.18 169.76 222.18C196.51 222.18 204.49 219.65 234.16 201.69C234.91 201.24 238.68 198.98 245.47 194.91C259.2 194.91 266.82 194.91 268.35 194.91C280.85 194.91 291.5 194.51 292.03 193.98C293.09 192.91 289.64 185.99 286.58 183.47C285.38 182.54 280.85 176.55 276.73 170.16C265.82 154.06 254.38 140.09 240.28 125.99C219.12 104.71 200.9 93 182.27 88.61C171.63 86.08 146.21 85.01 133.71 86.35C102.44 90.07 68.38 101.78 44.44 117.34ZM106.17 129.58C106.03 129.86 105.32 131.23 104.04 133.71C103.16 131.71 102.67 130.6 102.58 130.38C101.25 127.46 101.11 127.85 101.65 133.31C103.24 152.73 125.86 175.62 151.67 183.73C163.91 187.72 179.08 187.59 189.45 183.6C198.9 180.01 208.35 171.63 211.81 163.91C214.33 158.19 216.06 156.99 217.39 159.92C217.93 160.85 217.93 158.85 217.53 155.26C217.26 151.8 215.66 146.61 214.2 143.69C210.61 136.77 210.87 135.97 215 139.83C220.32 144.62 238.15 166.17 238.15 167.77C238.15 168.43 237.08 169.36 235.89 169.9C234.56 170.3 225.77 175.09 216.2 180.41C168.3 207.28 138.5 205.55 90.34 173.09C76.9 164.04 43.9 136.5 42.97 133.58C42.44 131.98 68.65 121.2 89.8 114.42C106.83 108.96 123.86 105.24 132.38 105.24C132.82 105.24 135.04 105.24 139.03 105.24L131.71 107.9C118.23 115.79 109.72 123.02 106.17 129.58ZM184.27 125.19C190.92 133.18 191.72 143.82 186.13 150.87C183.47 154.33 170.56 161.78 169.5 160.58C169.1 160.32 170.43 156.86 172.29 152.87C178.54 139.43 176.02 132.11 163.24 126.39C155.79 122.93 141.03 122.93 133.71 126.26C128.65 128.52 119.74 137.03 119.74 139.7C119.74 140.36 119.07 142.49 118.28 144.62C116.41 149.81 114.42 146.35 114.42 137.57C114.42 126.79 120.27 120.14 134.24 114.82C142.36 111.76 162.98 113.35 172.82 117.88C177.35 119.87 182.54 123.2 184.27 125.19ZM147.01 139.16C138.76 154.73 146.48 165.64 167.77 168.3C172.16 168.83 177.35 168.57 180.81 167.63C187.99 165.77 197.57 156.99 199.7 150.61C201.96 143.69 202.49 142.89 203.69 145.82C205.29 149.67 205.02 159.52 203.42 162.71C197.97 173.22 186.79 178.28 169.1 178.28C153.93 178.28 145.02 175.62 137.7 168.83C125.59 157.66 126.52 145.42 140.09 135.57C144.62 132.25 150.34 130.38 150.34 132.25C150.34 132.64 148.88 135.7 147.01 139.16ZM162.05 155C157.26 159.12 154.46 158.85 151.8 154.2C149.41 149.81 150.61 145.02 155.79 139.03C160.85 133.31 165.64 132.78 167.9 137.7C170.03 142.49 167.37 150.61 162.05 155Z" transform="matrix(1, 0, 0, 1, 0, 0)" opacity="1" fill-opacity="1" style=""/>
      <g>
        <path d="M44.44 117.34C39.38 120.54 34.59 123.6 33.79 124.13C32.86 124.66 29.93 123.2 27.27 121.07C24.48 118.81 21.69 117.08 21.15 117.08C18.89 117.08 19.96 120.94 23.28 124.79C23.5 125.06 24.61 126.39 26.61 128.79L20.36 134.37L13.97 139.83C17.16 139.43 18.94 139.21 19.29 139.16C22.22 138.76 26.74 138.1 29.4 137.57C33.93 136.77 34.46 137.17 40.71 144.49C44.3 148.61 54.68 158.99 63.86 167.37C92.86 193.98 118.14 211.14 138.76 218.32C148.88 221.92 151.14 222.18 169.76 222.18C196.51 222.18 204.49 219.65 234.16 201.69C234.91 201.24 238.68 198.98 245.47 194.91C259.2 194.91 266.82 194.91 268.35 194.91C280.85 194.91 291.5 194.51 292.03 193.98C293.09 192.91 289.64 185.99 286.58 183.47C285.38 182.54 280.85 176.55 276.73 170.16C265.82 154.06 254.38 140.09 240.28 125.99C219.12 104.71 200.9 93 182.27 88.61C171.63 86.08 146.21 85.01 133.71 86.35C102.44 90.07 68.38 101.78 44.44 117.34ZM106.17 129.58C106.03 129.86 105.32 131.23 104.04 133.71C103.16 131.71 102.67 130.6 102.58 130.38C101.25 127.46 101.11 127.85 101.65 133.31C103.24 152.73 125.86 175.62 151.67 183.73C163.91 187.72 179.08 187.59 189.45 183.6C198.9 180.01 208.35 171.63 211.81 163.91C214.33 158.19 216.06 156.99 217.39 159.92C217.93 160.85 217.93 158.85 217.53 155.26C217.26 151.8 215.66 146.61 214.2 143.69C210.61 136.77 210.87 135.97 215 139.83C220.32 144.62 238.15 166.17 238.15 167.77C238.15 168.43 237.08 169.36 235.89 169.9C234.56 170.3 225.77 175.09 216.2 180.41C168.3 207.28 138.5 205.55 90.34 173.09C76.9 164.04 43.9 136.5 42.97 133.58C42.44 131.98 68.65 121.2 89.8 114.42C106.83 108.96 123.86 105.24 132.38 105.24C132.82 105.24 135.04 105.24 139.03 105.24L131.71 107.9C118.23 115.79 109.72 123.02 106.17 129.58ZM184.27 125.19C190.92 133.18 191.72 143.82 186.13 150.87C183.47 154.33 170.56 161.78 169.5 160.58C169.1 160.32 170.43 156.86 172.29 152.87C178.54 139.43 176.02 132.11 163.24 126.39C155.79 122.93 141.03 122.93 133.71 126.26C128.65 128.52 119.74 137.03 119.74 139.7C119.74 140.36 119.07 142.49 118.28 144.62C116.41 149.81 114.42 146.35 114.42 137.57C114.42 126.79 120.27 120.14 134.24 114.82C142.36 111.76 162.98 113.35 172.82 117.88C177.35 119.87 182.54 123.2 184.27 125.19ZM147.01 139.16C138.76 154.73 146.48 165.64 167.77 168.3C172.16 168.83 177.35 168.57 180.81 167.63C187.99 165.77 197.57 156.99 199.7 150.61C201.96 143.69 202.49 142.89 203.69 145.82C205.29 149.67 205.02 159.52 203.42 162.71C197.97 173.22 186.79 178.28 169.1 178.28C153.93 178.28 145.02 175.62 137.7 168.83C125.59 157.66 126.52 145.42 140.09 135.57C144.62 132.25 150.34 130.38 150.34 132.25C150.34 132.64 148.88 135.7 147.01 139.16ZM162.05 155C157.26 159.12 154.46 158.85 151.8 154.2C149.41 149.81 150.61 145.02 155.79 139.03C160.85 133.31 165.64 132.78 167.9 137.7C170.03 142.49 167.37 150.61 162.05 155Z" transform="matrix(1, 0, 0, 1, 0, 0)" opacity="1" fill-opacity="0" stroke="#000000" stroke-width="1" stroke-opacity="0" style=""/>
      </g>
    </g>
  </g>
</svg>